<?xml version="1.0" encoding="UTF-8"?>
<svg version="1.1" xmlns="http://www.w3.org/2000/svg" width="250" height="300">
<path d="M0 0 C0.77945984 0.06529907 1.55891968 0.13059814 2.36199951 0.19787598 C63.03408455 5.38052382 117.45181389 23.92997123 164.25 63.8125 C165.33397548 64.71173361 166.41864879 65.61012649 167.50390625 66.5078125 C179.35068997 76.38570827 190.5968216 87.00712429 200.1484375 99.15234375 C202.4187895 102.02615362 204.79928182 104.78610394 207.1875 107.5625 C243.36423703 151.05274405 265.01635331 212.86912865 265.48828125 269.26953125 C265.49812042 270.24240585 265.50795959 271.21528046 265.51809692 272.21763611 C265.69072963 293.72687985 265.63416944 314.66903244 261.25 335.8125 C260.89591064 337.53291504 260.89591064 337.53291504 260.53466797 339.28808594 C252.13848939 378.62182775 235.36027733 412.75877311 211.62597656 444.89160156 C210.36602511 446.65052599 209.20440265 448.44152169 208.0546875 450.2734375 C206.25 452.8125 206.25 452.8125 203.25 453.8125 C202.5500964 455.1286904 201.89230161 456.46725992 201.25 457.8125 C199.65982084 459.9982839 198.04986401 462.13125606 196.375 464.25 C195.89321289 464.86109619 195.41142578 465.47219238 194.91503906 466.10180664 C189.68449653 472.64840487 184.02791873 478.75028426 178.25 484.8125 C177.63769531 485.48925781 177.02539062 486.16601562 176.39453125 486.86328125 C166.81351741 497.15399982 154.37411448 502.97187959 141.78320312 508.66552734 C137.46562525 510.62042141 133.16878446 512.61851194 128.875 514.625 C127.68946533 515.16640625 127.68946533 515.16640625 126.47998047 515.71875 C122.30344124 517.66629332 118.62715289 519.59833711 115.25 522.8125 C114.92 523.8025 114.59 524.7925 114.25 525.8125 C114.87648438 525.30203125 114.87648438 525.30203125 115.515625 524.78125 C121.67934962 520.21912311 128.33123777 517.65739456 135.42822266 514.93359375 C141.96162458 512.40124862 148.19664629 509.50315188 154.40063477 506.25048828 C159.07211508 503.8125 159.07211508 503.8125 161.25 503.8125 C160.23060443 513.79344772 158.6110748 520.35000485 151.5625 527.5625 C143.65718516 533.56868891 133.30456305 535.04697185 123.81640625 536.87890625 C117.9816776 538.06151568 112.69276699 539.64714446 107.22851562 542.02539062 C105.25 542.8125 105.25 542.8125 103.25 542.8125 C102.43799908 531.55726497 104.82761874 520.95299541 111.55859375 511.7421875 C120.77758576 501.22444604 133.7248647 498.7970476 146.83203125 496.1015625 C163.64965713 492.46848653 169.59407146 482.7907396 178.6875 468.6875 C179.33855713 467.68195068 179.98961426 466.67640137 180.66040039 465.64038086 C185.86434705 457.53924505 190.77656689 449.33852059 195.25 440.8125 C195.58016113 440.1839209 195.91032227 439.5553418 196.25048828 438.90771484 C198.67438609 434.25217974 200.9882783 429.54872237 203.25 424.8125 C203.60030273 424.08144043 203.95060547 423.35038086 204.31152344 422.59716797 C220.90641225 387.65545913 233.55274955 349.46557284 237.25 310.8125 C237.35957031 309.80574219 237.46914063 308.79898437 237.58203125 307.76171875 C242.81414304 250.62705796 229.49113961 189.585181 192.75 144.5 C191.11781864 142.54147857 189.47303535 140.5949625 187.81738281 138.65625 C186.33429752 136.9116612 184.87879722 135.14783613 183.4296875 133.375 C171.79411132 119.28114613 158.78246381 105.92052462 144.25 94.8125 C143.16583142 93.9414557 142.08393768 93.06757506 141.00390625 92.19140625 C90.87980089 51.72560182 27.07928489 30.5976917 -37.33276367 36.83056641 C-85.75824351 42.00464495 -130.7375817 59.28881249 -168.75 89.8125 C-169.7503125 90.6065625 -170.750625 91.400625 -171.78125 92.21875 C-186.11114868 103.94321256 -199.58418335 117.14668705 -210.50830078 132.12646484 C-211.78825055 133.86443832 -213.10623438 135.56755627 -214.43359375 137.26953125 C-240.1431316 170.64578397 -253.31002851 211.40077947 -258.75 252.8125 C-258.8435376 253.50230957 -258.9370752 254.19211914 -259.03344727 254.90283203 C-262.87273416 287.35189046 -259.21060762 320.67588623 -249.75 351.8125 C-249.49911621 352.64620117 -249.24823242 353.47990234 -248.98974609 354.33886719 C-239.5639362 384.9500183 -223.19118558 413.27576382 -202.75 437.8125 C-202.08895264 438.60889893 -202.08895264 438.60889893 -201.41455078 439.42138672 C-192.23923784 450.43611221 -182.72610725 460.70647366 -171.4609375 469.65234375 C-169.73229941 471.02977439 -168.02609773 472.43618778 -166.3515625 473.87890625 C-129.81298624 505.17298655 -78.69934349 527.7268018 -30.078125 528.015625 C-29.28159012 528.02263931 -28.48505524 528.02965363 -27.66438293 528.03688049 C-25.10953038 528.05427482 -22.55490958 528.06073194 -20 528.0625 C-18.69142532 528.06351212 -18.69142532 528.06351212 -17.35641479 528.06454468 C9.10240152 528.03200898 38.91919629 525.63801382 59.12719727 506.31347656 C73.25506503 491.84951477 82.24889547 463.68670803 82.6875 443.5625 C82.46440039 430.52511675 78.14491586 417.88372744 74.59619141 405.44018555 C66.50676296 377.04024963 60.45383236 349.86303683 75.1015625 322.55859375 C77.96036682 317.4546751 81.2619466 313.09407414 85.25 308.8125 C85.77480957 308.2467627 86.29961914 307.68102539 86.84033203 307.09814453 C97.32681805 295.90653775 109.0439144 285.11893987 123.25 278.8125 C123.91 278.8125 124.57 278.8125 125.25 278.8125 C123.83968213 282.9031602 121.87050103 285.80890611 119.1875 289.1875 C99.50525687 314.73706759 92.42868769 341.9431286 95.96875 373.98364258 C98.07816326 390.19226621 102.66514364 405.88900585 107.19140625 421.55859375 C113.5168953 443.49010524 113.5168953 443.49010524 114.25 454.8125 C114.31960938 455.86695313 114.38921875 456.92140625 114.4609375 458.0078125 C115.2776375 483.57680494 104.40593835 512.53187461 87.4140625 531.53515625 C86.69992187 532.28667969 85.98578125 533.03820312 85.25 533.8125 C84.55648438 534.59496094 83.86296875 535.37742187 83.1484375 536.18359375 C71.64162483 548.59002996 55.80284083 555.33029643 39.6875 559.5 C38.96425537 559.69037842 38.24101074 559.88075684 37.49584961 560.0769043 C20.92826111 564.0880415 4.18036922 565.36941796 -12.8125 565.25 C-13.74099762 565.24695862 -14.66949524 565.24391724 -15.62612915 565.24078369 C-31.61074301 565.16385815 -47.0579135 564.0661023 -62.75 560.8125 C-64.26352051 560.49901611 -64.26352051 560.49901611 -65.80761719 560.17919922 C-89.31387114 555.11940415 -112.12625498 547.29204036 -133.75 536.8125 C-135.39581892 536.03512574 -137.04165244 535.25778237 -138.6875 534.48046875 C-161.3098746 523.63703316 -182.45771484 510.03522126 -200.75 492.8125 C-201.89850166 491.76426705 -203.04834311 490.71750095 -204.19921875 489.671875 C-214.9531096 479.84634738 -225.05125148 469.46991283 -234.42578125 458.31518555 C-235.87023923 456.62412943 -235.87023923 456.62412943 -238.1875 454.5625 C-241.5845342 450.91690232 -244.04870123 446.91032679 -246.62792969 442.65771484 C-247.88910625 440.58374346 -249.1678466 438.52100664 -250.4453125 436.45703125 C-278.78357057 390.31731883 -297.18488462 340.35558473 -297.06567383 285.71289062 C-297.06252556 282.71186524 -297.08603409 279.71184128 -297.11132812 276.7109375 C-297.16955619 258.93266435 -295.29809745 241.39438988 -291.5625 224 C-291.24949951 222.53699463 -291.24949951 222.53699463 -290.93017578 221.04443359 C-278.67385551 166.00909397 -248.68577288 108.1703696 -204.7109375 71.46484375 C-202.48564151 69.58974374 -200.37882788 67.60884126 -198.25 65.625 C-145.58064443 18.32679637 -70.17965315 -5.90147509 0 0 Z " fill="#134101" transform="translate(409.75,1.1875)"/>
<path d="M0 0 C1.13054097 -0.00449459 2.26108193 -0.00898917 3.42588171 -0.01361996 C4.6758075 -0.00836593 5.92573328 -0.0031119 7.21353561 0.00230134 C8.55408884 0.00082287 9.89464134 -0.00153342 11.23519167 -0.00469166 C14.94333695 -0.01085539 18.65137334 -0.00445834 22.35951054 0.00386461 C26.38437911 0.01071087 30.40923621 0.00599565 34.43410695 0.00270963 C41.49618813 -0.0014461 48.5582357 0.00186371 55.62031299 0.00998604 C66.12144413 0.0220303 76.62255396 0.02266006 87.12369074 0.02090207 C104.78618934 0.01827092 122.448673 0.02496975 140.11116725 0.03693688 C157.6060118 0.04876011 175.10085014 0.05646658 192.59569865 0.05864251 C194.22573314 0.05884873 194.22573314 0.05884873 195.88869761 0.05905911 C201.40716594 0.05973575 206.92563428 0.06033853 212.44410262 0.06091286 C251.55861579 0.06511668 290.67312084 0.07859972 329.78762943 0.09751809 C367.79316284 0.11587889 405.79869403 0.13005007 443.80423099 0.13853371 C445.56064887 0.13892829 445.56064887 0.13892829 447.35254995 0.13933084 C459.11137661 0.14196782 470.87020329 0.14451946 482.62902999 0.14700856 C506.58434715 0.15208135 530.53966416 0.15772385 554.49498111 0.16371071 C555.59647256 0.16398529 556.697964 0.16425987 557.83283398 0.16454277 C631.42201722 0.18295241 705.01119596 0.21464378 778.60037357 0.24839699 C778.60037357 2.88839699 778.60037357 5.52839699 778.60037357 8.24839699 C709.1621735 8.41899165 639.72395712 8.58229427 570.28572512 8.73935264 C566.30079421 8.74836776 562.31586332 8.75739519 558.33093244 8.76642287 C349.55391283 9.23901376 349.55391283 9.23901376 125.64559734 9.3115555 C123.0266166 9.31089415 120.40763585 9.31025178 117.7886551 9.30961144 C75.39255493 9.29912414 32.99646354 9.2800149 -9.39962643 9.24839699 C-9.08712643 5.87339699 -9.08712643 5.87339699 -8.39962643 2.24839699 C-5.03144506 0.00294274 -3.93806211 -0.00125636 0 0 Z " fill="#1D1F22" transform="translate(9.399626433849335,707.7516030073166)"/>
<path d="M0 0 C11.45498211 9.30040918 20.98410402 21.29557384 24 36 C24.36916815 40.15719844 24.37666447 44.26680955 24.3125 48.4375 C24.31572266 49.51193359 24.31894531 50.58636719 24.32226562 51.69335938 C24.26774826 59.59837761 24.26774826 59.59837761 22 63 C19.22613065 54.81708543 19.22613065 54.81708543 18.12109375 50.82421875 C14.66459454 38.51676759 8.43795884 28.6627753 -2.77734375 21.93359375 C-13.68182654 16.0818812 -25.15063649 15.64554783 -36.9765625 18.8984375 C-46.35365493 22.31489753 -54.76060295 28.5212059 -59.27734375 37.5546875 C-64.34717614 49.7150684 -63.68073516 60.2894426 -59.0390625 72.53515625 C-51.09417775 89.86176661 -35.34049308 104.31318562 -20.5859375 115.921875 C-16.75106958 119.00367218 -13.16456729 122.34032787 -9.546875 125.671875 C-7.41788614 127.61800592 -5.25843347 129.50573432 -3.0625 131.375 C16.98146802 148.94440407 16.98146802 148.94440407 21 161 C21.0685495 162.89470816 21.08480372 164.7916834 21.0625 166.6875 C21.05347656 167.68136719 21.04445313 168.67523438 21.03515625 169.69921875 C21.02355469 170.45847656 21.01195312 171.21773437 21 172 C18 171 18 171 17 169.13671875 C16.67 168.32847656 16.34 167.52023437 16 166.6875 C5.7872537 145.31694729 -19.42692182 132.22284121 -38.75 120.375 C-51.04164362 112.82834158 -62.53247286 104.99686495 -73 95 C-73.63421875 94.42894531 -74.2684375 93.85789062 -74.921875 93.26953125 C-85.11263791 83.77769234 -92.64463874 69.59963918 -93.23828125 55.59375 C-93.46027068 45.41723433 -93.11437415 36.49272532 -89 27 C-88.39865234 25.6078125 -88.39865234 25.6078125 -87.78515625 24.1875 C-79.19427474 6.6571215 -64.14702177 -3.04854238 -46.25 -9.3125 C-30.36910258 -12.74620755 -13.23604703 -9.17193223 0 0 Z " fill="#134101" transform="translate(414,315)"/>
<path d="M0 0 C-2.24498269 6.21687514 -6.38847483 10.76448434 -10.4765625 15.87890625 C-12.16981918 18.01516129 -12.16981918 18.01516129 -13 21 C-13.66 21 -14.32 21 -15 21 C-15.13535156 21.52464844 -15.27070312 22.04929688 -15.41015625 22.58984375 C-16.78843177 27.54998501 -18.4914152 32.21724339 -20.56396484 36.92016602 C-35.48778725 71.0768018 -25.08646503 107.3273849 -14.36035156 141.2512207 C-8.10772218 161.10602966 -7.13289786 180.85790788 -16.8125 199.75 C-25.27723473 214.36704819 -36.51791508 226.09864188 -53.1640625 230.5546875 C-53.76992188 230.70164062 -54.37578125 230.84859375 -55 231 C-55.33 230.34 -55.66 229.68 -56 229 C-55.21496094 227.94683594 -54.42992187 226.89367187 -53.62109375 225.80859375 C-40.89576645 208.45053428 -32.24376918 191.84205351 -35.31747437 169.71450806 C-35.73263278 167.37684341 -36.19333051 165.05435908 -36.6796875 162.73046875 C-36.85568481 161.87150497 -37.03168213 161.0125412 -37.2130127 160.12754822 C-39.45695704 149.45301784 -42.3481792 138.94934016 -45.21826172 128.42993164 C-47.88789644 118.610596 -50.36223323 108.8053699 -52.28125 98.80859375 C-52.44250366 97.97223892 -52.60375732 97.13588409 -52.76989746 96.27418518 C-56.61417743 75.42979239 -55.44564202 58.56785169 -45 40 C-44.42894531 38.98421875 -43.85789062 37.9684375 -43.26953125 36.921875 C-38.08691422 28.30469705 -31.77679554 20.08285802 -23 15 C-22.34 14.175 -21.68 13.35 -21 12.5 C-18.85322146 9.81652682 -16.93858173 8.7201454 -14 7 C-13.154375 6.154375 -12.30875 5.30875 -11.4375 4.4375 C-7.67931548 0.67931548 -5.30188269 -0.29454904 0 0 Z " fill="#134101" transform="translate(611,214)"/>
<path d="M0 0 C6.27 0 12.54 0 19 0 C23.29 11.88 27.58 23.76 32 36 C36.23628819 24.5275998 36.23628819 24.5275998 40.46655273 13.05297852 C40.99701392 11.61987329 41.52768006 10.1868439 42.05859375 8.75390625 C42.33417114 8.00330933 42.60974854 7.2527124 42.89367676 6.47937012 C44.8859282 1.1140718 44.8859282 1.1140718 46 0 C47.34267413 -0.08631874 48.68974322 -0.10706473 50.03515625 -0.09765625 C50.84404297 -0.09443359 51.65292969 -0.09121094 52.48632812 -0.08789062 C53.33646484 -0.07951172 54.18660156 -0.07113281 55.0625 -0.0625 C55.91650391 -0.05798828 56.77050781 -0.05347656 57.65039062 -0.04882812 C59.76695663 -0.03700373 61.88348685 -0.01906769 64 0 C66.43752096 15.2749855 68.68518437 30.57489697 70.83905029 45.8921814 C71.11266204 47.83653971 71.38743938 49.78073437 71.66339111 51.72476196 C72.05523834 54.48919314 72.44236619 57.25424469 72.828125 60.01953125 C72.94668854 60.85190308 73.06525208 61.6842749 73.18740845 62.54187012 C73.71917371 66.39308986 74.14732234 70.1003776 74 74 C71.02077407 74.02683987 68.04178705 74.04676037 65.0625 74.0625 C64.21236328 74.07087891 63.36222656 74.07925781 62.48632812 74.08789062 C61.67744141 74.09111328 60.86855469 74.09433594 60.03515625 74.09765625 C59.2862915 74.10289307 58.53742676 74.10812988 57.76586914 74.11352539 C56 74 56 74 55 73 C54.64024393 70.68784924 54.3391718 68.366526 54.0625 66.04296875 C53.97750244 65.34359695 53.89250488 64.64422516 53.80493164 63.92366028 C53.53254942 61.67874239 53.26586534 59.43319831 53 57.1875 C52.7335334 54.95259557 52.46580016 52.71786665 52.19506836 50.48347473 C52.0265809 49.09144693 51.8606246 47.69910984 51.69750977 46.30644226 C51.31223821 43.1093807 50.78368107 40.13472429 50 37 C45.38 49.21 40.76 61.42 36 74 C33.36 74 30.72 74 28 74 C24.44882441 67.41207145 21.90817117 60.59685588 19.42578125 53.54345703 C18.74333511 51.60607922 18.0519285 49.6720662 17.359375 47.73828125 C14 38.27004278 14 38.27004278 14 36 C13.34 36 12.68 36 12 36 C12.04125 37.0003125 12.0825 38.000625 12.125 39.03125 C12.125 45.90617734 10.95102282 52.70561215 10 59.5 C9.80680232 60.90878714 9.61408982 62.31764092 9.421875 63.7265625 C8.95440431 67.15199429 8.47699899 70.57582864 8 74 C1.73 74 -4.54 74 -11 74 C-8.80155384 57.50818622 -6.36516642 41.06531898 -3.8125 24.625 C-3.44057666 22.22007969 -3.06883094 19.8151319 -2.69726562 17.41015625 C-1.80021556 11.60645341 -0.90079377 5.8031229 0 0 Z " fill="#134101" transform="translate(150,612)"/>
<path d="M0 0 C2.10911071 0.00311361 4.21675087 -0.020153 6.32568359 -0.0456543 C18.68678459 -0.10602487 31.11169394 1.02628985 42.14990234 7.06567383 C43.14521973 7.58846924 43.14521973 7.58846924 44.16064453 8.12182617 C51.70494516 12.18910805 58.64696297 16.59822195 62.77490234 24.31567383 C62.77490234 24.97567383 62.77490234 25.63567383 62.77490234 26.31567383 C59.71796912 27.84414044 57.14505687 27.54809828 53.77490234 27.31567383 C53.14205322 26.8396875 52.5092041 26.36370117 51.85717773 25.87329102 C45.1164212 20.83096171 33.84292278 22.00906437 25.83740234 22.06567383 C24.7475 22.05793945 23.65759766 22.05020508 22.53466797 22.04223633 C15.10161007 22.05990254 8.06369612 22.87286897 0.77490234 24.31567383 C7.37646592 33.78748244 17.85272424 38.7720729 27.83740234 43.94067383 C35.30301513 47.83713552 42.71220614 51.71301787 49.77490234 56.31567383 C48.015625 60.20776367 48.015625 60.20776367 45.84912109 61.17895508 C35.81703183 63.06715518 27.11854039 62.41376069 17.77490234 58.31567383 C15.50857508 58.00941339 13.23673682 57.74283488 10.96240234 57.50317383 C-0.94081659 55.91942981 -8.07463715 49.03539872 -16.48583984 40.97827148 C-19.10052513 38.47883201 -21.7401342 36.0061896 -24.37890625 33.53222656 C-25.735648 32.25939232 -27.09028401 30.98430822 -28.44238281 29.70654297 C-32.38947761 25.98641363 -36.41132931 22.38886243 -40.55224609 18.88500977 C-43.24225866 16.36145449 -44.20440443 14.843351 -44.35009766 11.12817383 C-44.30884766 10.20004883 -44.26759766 9.27192383 -44.22509766 8.31567383 C-35.37780388 4.96541185 -27.76534656 2.31567383 -18.22509766 2.31567383 C-17.47534668 1.99187744 -16.7255957 1.66808105 -15.953125 1.33447266 C-10.88118858 -0.55967364 -5.35805841 -0.0164807 0 0 Z " fill="#0464F2" transform="translate(217.22509765625,214.684326171875)"/>
<path d="M0 0 C1.09524874 1.00717719 2.17126494 2.03815042 3.1875 3.125 C3.1875 3.455 3.1875 3.785 3.1875 4.125 C1.67119995 4.0935791 1.67119995 4.0935791 0.12426758 4.06152344 C-25.68594386 3.43640218 -25.68594386 3.43640218 -51.12890625 7.25 C-54.8125 8.125 -54.8125 8.125 -58.8125 8.125 C-47.20434436 24.51298443 -21.54823128 31.14758219 -2.8125 35.125 C-2.8125 35.785 -2.8125 36.445 -2.8125 37.125 C-4.39449631 37.77410154 -5.97815724 38.41914694 -7.5625 39.0625 C-8.44421875 39.42214844 -9.3259375 39.78179687 -10.234375 40.15234375 C-26.11292759 46.14288859 -45.34038069 41.99325383 -60.36328125 35.38916016 C-68.355896 31.70340065 -75.71039695 27.33895959 -82.8125 22.125 C-83.3379541 21.74085938 -83.8634082 21.35671875 -84.40478516 20.9609375 C-92.3167532 15.14020752 -99.663051 8.85894996 -106.8125 2.125 C-103.27590715 -1.86274282 -98.78355536 -3.04648987 -93.875 -4.8125 C-92.40522705 -5.34254639 -92.40522705 -5.34254639 -90.90576172 -5.88330078 C-81.35309734 -9.21405278 -71.78782032 -11.29872118 -61.8125 -12.875 C-61.09868164 -12.99601074 -60.38486328 -13.11702148 -59.64941406 -13.24169922 C-38.36880783 -16.80512624 -16.96028773 -14.53738948 0 0 Z " fill="#134101" transform="translate(292.8125,315.875)"/>
<path d="M0 0 C36 0 36 0 43.8125 4.6875 C48.99654016 10.16777102 50.27996907 14.86540125 50.5 22.4375 C50.27518062 30.220902 49.09289965 35.98253693 43.4375 41.5 C41 43 41 43 38 44 C39.27310708 47.47982601 40.74480994 50.30001531 42.93359375 53.28515625 C43.50013672 54.06310547 44.06667969 54.84105469 44.65039062 55.64257812 C45.24013672 56.44115234 45.82988281 57.23972656 46.4375 58.0625 C47.02337891 58.86494141 47.60925781 59.66738281 48.21289062 60.49414062 C51.37637572 64.84142307 51.37637572 64.84142307 54.69165039 69.07202148 C56 71 56 71 56 74 C37.45019464 76.53106764 37.45019464 76.53106764 32.05712891 72.57470703 C28.34364591 68.26484768 26.24851744 63.17574548 24 58 C21.525 53.545 21.525 53.545 19 49 C18.67 57.25 18.34 65.5 18 74 C12.06 74 6.12 74 0 74 C0 49.58 0 25.16 0 0 Z M19 16 C18.1679418 21.72040011 17.87963336 27.22240116 18 33 C24.0850081 32.76369104 24.0850081 32.76369104 29.5625 30.375 C31.57534339 27.04943266 31.47751931 24.8201545 31 21 C30.23608998 18.48130668 30.23608998 18.48130668 28 17 C25.00762978 16.37393673 22.05114366 16.12793055 19 16 Z " fill="#134101" transform="translate(300,612)"/>
<path d="M0 0 C1.051875 -0.00257813 2.10375 -0.00515625 3.1875 -0.0078125 C6 0.125 6 0.125 9 1.125 C9 10.035 9 18.945 9 28.125 C16.59 28.125 24.18 28.125 32 28.125 C32.33 19.215 32.66 10.305 33 1.125 C35.70238298 -0.22619149 37.86014446 -0.00737128 40.875 0 C42.44894531 -0.00386719 42.44894531 -0.00386719 44.0546875 -0.0078125 C46.57656554 0.10590614 48.58685598 0.47158886 51 1.125 C51.17362361 25.14115185 50.67354239 49.11930449 50 73.125 C47.18743719 73.15184312 44.37512759 73.17176188 41.5625 73.1875 C40.35883789 73.20006836 40.35883789 73.20006836 39.13085938 73.21289062 C37.08704779 73.2215143 35.04316098 73.1772815 33 73.125 C32 72.125 32 72.125 31.88647461 69.44116211 C31.89171143 68.27335205 31.89694824 67.10554199 31.90234375 65.90234375 C31.90556641 64.64228516 31.90878906 63.38222656 31.91210938 62.08398438 C31.92046597 60.74348891 31.92893093 59.40299412 31.9375 58.0625 C31.9425134 56.71810058 31.94707658 55.3736994 31.95117188 54.02929688 C31.96300503 50.72784567 31.98094114 47.4264174 32 44.125 C24.41 44.125 16.82 44.125 9 44.125 C9 53.695 9 63.265 9 73.125 C3.06 73.125 -2.88 73.125 -9 73.125 C-9 49.365 -9 25.605 -9 1.125 C-5.77717587 0.05072529 -3.38488847 -0.0082963 0 0 Z " fill="#134101" transform="translate(398,612.875)"/>
<path d="M0 0 C5.94 0 11.88 0 18 0 C18.33 8.91 18.66 17.82 19 27 C23.38258798 20.73354614 23.38258798 20.73354614 27.7644043 14.46655273 C28.93939428 12.78724158 30.12587395 11.11593637 31.32104492 9.45092773 C33.00343527 7.09646552 33.00343527 7.09646552 34.1574707 4.80102539 C35.29032251 2.74510915 36.13182244 1.43005122 38 0 C41.97350128 -0.83976255 45.77487661 -0.66194944 49.8125 -0.4375 C50.88693359 -0.40591797 51.96136719 -0.37433594 53.06835938 -0.34179688 C55.71503569 -0.25945583 58.35611094 -0.14453557 61 0 C59.27075869 3.60774546 57.15853565 6.52894216 54.6875 9.6875 C54.26178711 10.23986328 53.83607422 10.79222656 53.39746094 11.36132812 C50.77050834 14.76531945 48.09292524 18.12205045 45.37890625 21.45703125 C44.16920525 22.97130178 42.95956908 24.4856241 41.75 26 C41.15276123 26.71760498 40.55552246 27.43520996 39.94018555 28.17456055 C36.78640533 31.89311435 36.78640533 31.89311435 36.23828125 36.4765625 C38.84895709 40.21602279 41.58442834 43.81717649 44.4375 47.375 C45.70077013 48.97533909 46.96246485 50.57692293 48.22265625 52.1796875 C48.85445801 52.98245117 49.48625977 53.78521484 50.13720703 54.61230469 C52.93757194 58.20176325 55.67064993 61.83784987 58.375 65.5 C58.84478271 66.12825684 59.31456543 66.75651367 59.79858398 67.40380859 C63 71.76181431 63 71.76181431 63 74 C42.94060702 76.68869836 42.94060702 76.68869836 36.81445312 72.50878906 C32.53336891 67.9697242 29.9203186 62.46224226 27 57 C23.04 51.555 23.04 51.555 19 46 C18.67 55.24 18.34 64.48 18 74 C12.06 74 6.12 74 0 74 C0 49.58 0 25.16 0 0 Z " fill="#134101" transform="translate(7,612)"/>
<path d="M0 0 C1.43375977 -0.01836914 1.43375977 -0.01836914 2.89648438 -0.03710938 C11.62001935 -0.05494891 19.32124928 0.52791608 26.3125 6.1875 C30.79425545 11.28742862 30.63521948 16.32959577 30.61328125 22.8671875 C30.19514717 27.48295332 28.7565996 30.29221627 26.3125 34.1875 C27.240625 34.744375 28.16875 35.30125 29.125 35.875 C33.20380142 38.83413045 34.74165319 41.47495956 36.3125 46.1875 C37.26565682 59.91662424 37.26565682 59.91662424 33.3125 65.1875 C24.82822935 73.30288932 16.11526804 73.35527207 4.9375 73.3125 C3.43316406 73.31830078 3.43316406 73.31830078 1.8984375 73.32421875 C0.91359375 73.32292969 -0.07125 73.32164062 -1.0859375 73.3203125 C-1.96942871 73.31918457 -2.85291992 73.31805664 -3.76318359 73.31689453 C-7.42045234 73.15506848 -11.0549223 72.64157221 -14.6875 72.1875 C-14.6875 48.7575 -14.6875 25.3275 -14.6875 1.1875 C-9.71096273 -0.05663432 -5.10688609 0.00337534 0 0 Z M3.3125 16.1875 C3.3125 20.4775 3.3125 24.7675 3.3125 29.1875 C8.89750567 28.98851292 8.89750567 28.98851292 13.3125 26.1875 C13.81257794 22.72963985 13.81257794 22.72963985 13.3125 19.1875 C11.79355194 17.08985835 11.79355194 17.08985835 9.3125 16.1875 C7.3325 16.1875 5.3525 16.1875 3.3125 16.1875 Z M3.3125 43.1875 C3.6425 48.1375 3.9725 53.0875 4.3125 58.1875 C10.98723191 57.99340301 10.98723191 57.99340301 17 55.5625 C18.91303271 52.10082177 18.34988289 49.9220784 17.3125 46.1875 C12.82831607 43.19804405 8.65908811 43.56490622 3.3125 43.1875 Z " fill="#134101" transform="translate(579.6875,612.8125)"/>
<path d="M0 0 C1.051875 -0.01224609 2.10375 -0.02449219 3.1875 -0.03710938 C13.05711411 -0.05543168 22.73908714 0.44823156 30.5 7.1875 C34.78915255 12.06097188 35.58710368 17.85796573 35.5 24.1875 C34.81514572 30.74102864 32.97618251 36.36170002 27.68359375 40.6640625 C25.99070354 41.88841542 24.24862911 43.04416559 22.5 44.1875 C26.79399645 51.15458034 31.3167853 57.85686221 36.21044922 64.41455078 C38.34557617 67.32836128 39.77291152 69.65830971 40.5 73.1875 C33.2659097 74.6565254 25.54069644 75.90511138 18.5 73.1875 C11.88793469 67.00973567 8.19263109 58.30372669 4.5 50.1875 C4.17 57.7775 3.84 65.3675 3.5 73.1875 C-2.44 73.1875 -8.38 73.1875 -14.5 73.1875 C-14.52263971 64.83344693 -14.54096636 56.47941793 -14.55181217 48.12534237 C-14.55701899 44.24574069 -14.56407647 40.36616119 -14.57543945 36.48657227 C-14.5863468 32.73886969 -14.59229341 28.99118838 -14.59487724 25.24347115 C-14.59671739 23.81742582 -14.60031064 22.39138159 -14.60573006 20.96534538 C-14.61304467 18.95990011 -14.61340895 16.95443321 -14.61352539 14.94897461 C-14.615746 13.80980087 -14.61796661 12.67062714 -14.62025452 11.49693298 C-14.49244563 7.97960199 -14.17986195 4.64224634 -13.5 1.1875 C-9.49561299 -0.81469351 -4.40125441 0.00261979 0 0 Z M3.5 16.1875 C3.5 21.4675 3.5 26.7475 3.5 32.1875 C10.01068031 32.71807335 10.01068031 32.71807335 13.4375 30.6875 C15.93665005 27.65822721 16.2459903 25.94022434 15.98046875 22.09375 C15.57648903 19.91645565 15.57648903 19.91645565 13.4375 17.6875 C10.01068031 15.65692665 10.01068031 15.65692665 3.5 16.1875 Z " fill="#134101" transform="translate(520.5,612.8125)"/>
<path d="M0 0 C5.94 0 11.88 0 18 0 C18.01458252 1.381875 18.02916504 2.76375 18.04418945 4.1875 C18.10238092 9.33896104 18.17961265 14.4899945 18.26245117 19.64111328 C18.29560258 21.86597732 18.32366466 24.09092348 18.34643555 26.31591797 C18.38016145 29.5234663 18.43248712 32.73026866 18.48828125 35.9375 C18.49467117 36.92427734 18.5010611 37.91105469 18.50764465 38.92773438 C18.63411219 44.9358913 19.36011375 49.56364695 22 55 C25.96646808 57.5934599 28.04474335 58.11144661 32.75 57.5625 C36.10879301 56.25513821 36.10879301 56.25513821 37.875 53.5 C40.26469751 46.06538551 40.15892713 38.03162098 40.31640625 30.2734375 C40.33718735 29.39974518 40.35796844 28.52605286 40.37937927 27.62588501 C40.44398626 24.87565835 40.50333973 22.12534865 40.5625 19.375 C40.60577006 17.49348151 40.64938682 15.61197096 40.69335938 13.73046875 C40.80021717 9.15372903 40.89994654 4.57691358 41 0 C46.94 0 52.88 0 59 0 C59.07449699 7.36488669 59.12876647 14.72955102 59.16479492 22.09472656 C59.17982434 24.59704411 59.2002535 27.09933557 59.22631836 29.6015625 C59.26295878 33.21100325 59.27978546 36.82009383 59.29296875 40.4296875 C59.30845261 41.53738495 59.32393646 42.6450824 59.33988953 43.78634644 C59.34176757 52.57469566 58.20119428 61.31389427 52.65625 68.46484375 C45.04539731 75.51924259 35.69852245 76.38484298 25.8359375 76.2109375 C18.23014139 75.79269617 12.07896752 74.05198344 6.46875 68.74609375 C1.75184615 63.13849795 -0.0339902 56.86083445 -0.31640625 49.66015625 C-0.37948975 48.08016846 -0.37948975 48.08016846 -0.44384766 46.46826172 C-0.48300293 45.34436035 -0.5221582 44.22045898 -0.5625 43.0625 C-0.6042334 41.90766113 -0.6459668 40.75282227 -0.68896484 39.56298828 C-0.93810235 32.16716347 -1.10279785 24.77504489 -1.125 17.375 C-1.12959229 16.54234619 -1.13418457 15.70969238 -1.13891602 14.85180664 C-1.13690186 14.06281982 -1.1348877 13.27383301 -1.1328125 12.4609375 C-1.13168457 11.78853027 -1.13055664 11.11612305 -1.12939453 10.42333984 C-0.94305562 6.93352855 -0.43347443 3.46779541 0 0 Z " fill="#134101" transform="translate(74,612)"/>
<path d="M0 0 C6.6 0 13.2 0 20 0 C23.6639145 8.55347866 26.88713856 17.15846139 29.86328125 25.97265625 C30.30430863 27.27119168 30.7455721 28.56964695 31.1870575 29.86802673 C32.10147649 32.56043398 33.01289212 35.25383322 33.92211914 37.94799805 C35.0873661 41.39988169 36.26058922 44.84899471 37.4360323 48.29741764 C38.34433864 50.9651289 39.24834386 53.63428208 40.15105247 56.30389214 C40.79116484 58.19425728 41.43502117 60.0833533 42.07893372 61.97242737 C42.4632103 63.11469284 42.84748688 64.25695831 43.2434082 65.43383789 C43.75373344 66.94174644 43.75373344 66.94174644 44.27436829 68.4801178 C45 71 45 71 45 74 C38.73 74 32.46 74 26 74 C22 64.25 22 64.25 22 62 C14.08 62 6.16 62 -2 62 C-2.33 63.65 -2.66 65.3 -3 67 C-3.99 69.31 -4.98 71.62 -6 74 C-12.27 74 -18.54 74 -25 74 C-24.29441042 69.76646251 -23.59389803 66.43802812 -22.22167969 62.47631836 C-21.85749939 61.41759018 -21.49331909 60.358862 -21.11810303 59.26805115 C-20.72334778 58.13674271 -20.32859253 57.00543427 -19.921875 55.83984375 C-19.30919769 54.06765221 -19.30919769 54.06765221 -18.68414307 52.25965881 C-17.81886422 49.75993574 -16.9518142 47.26091959 -16.08154297 44.76293945 C-14.76288035 40.97759636 -13.45356068 37.18907606 -12.14453125 33.40039062 C-11.29992017 30.96338878 -10.45488142 28.5265351 -9.609375 26.08984375 C-9.22271667 24.97270493 -8.83605835 23.8555661 -8.43768311 22.70457458 C-5.77741205 15.073769 -2.93168709 7.53081166 0 0 Z M10 26 C5.57954018 35.64999729 5.57954018 35.64999729 4 46 C7.96 46 11.92 46 16 46 C15.35346673 39.04976736 13.13972752 32.61822697 11 26 C10.67 26 10.34 26 10 26 Z " fill="#134101" transform="translate(250,612)"/>
<path d="M0 0 C18.53596058 15.44663382 33.79125735 36.76818847 41 60 C41.24234375 60.75925781 41.4846875 61.51851562 41.734375 62.30078125 C44.77960324 73.5557802 43.07837023 84.96917336 40 96 C39.01 96 38.02 96 37 96 C36.56300781 94.94425781 36.56300781 94.94425781 36.1171875 93.8671875 C26.59426735 67.67301584 26.59426735 67.67301584 11 45 C9.515 44.505 9.515 44.505 8 44 C7.51218011 45.49720822 7.03527637 46.99797364 6.5625 48.5 C6.29566406 49.3353125 6.02882813 50.170625 5.75390625 51.03125 C4.00826735 57.90526847 3.85982871 64.7027072 3.90234375 71.75 C3.90446617 73.09807739 3.90446617 73.09807739 3.90663147 74.47338867 C3.91218417 77.31562775 3.92472763 80.15778513 3.9375 83 C3.94252112 84.93880094 3.94708295 86.87760312 3.95117188 88.81640625 C3.96213806 93.54430183 3.97936956 98.27213711 4 103 C2.8730202 102.0716331 1.75131642 101.1368593 0.63183594 100.19946289 C-0.30598724 99.41968834 -0.30598724 99.41968834 -1.26275635 98.62416077 C-10.16600086 90.30045763 -12.84617715 75.60750576 -13.27734375 64 C-13.55004287 51.33577837 -12.93592503 39.32332482 -10 27 C-9.85546387 26.34999023 -9.71092773 25.69998047 -9.56201172 25.03027344 C-7.54438909 15.99007283 -4.51559266 8.08291086 0 0 Z " fill="#1E1F22" transform="translate(419,79)"/>
<path d="M0 0 C1.18613892 0.07069702 1.18613892 0.07069702 2.39624023 0.14282227 C3.67724609 0.21533203 3.67724609 0.21533203 4.98413086 0.28930664 C5.88196289 0.34538086 6.77979492 0.40145508 7.70483398 0.45922852 C8.6065332 0.51143555 9.50823242 0.56364258 10.43725586 0.61743164 C12.67260301 0.74753121 14.90748612 0.88338832 17.14233398 1.02172852 C20.27940548 8.59709902 23.01947719 16.27457683 25.65405273 24.03735352 C26.06774612 25.25195251 26.48143951 26.46655151 26.90766907 27.71795654 C27.7759315 30.26877696 28.64207285 32.82030571 29.50683594 35.37231445 C30.61133336 38.63081692 31.72258276 41.88697254 32.83557415 45.14258194 C33.90431238 48.27273373 34.96628178 51.40517067 36.02905273 54.53735352 C36.42694504 55.6999469 36.82483734 56.86254028 37.23478699 58.06036377 C37.60219498 59.14879578 37.96960297 60.23722778 38.34814453 61.35864258 C38.67139206 62.30999084 38.99463959 63.26133911 39.3276825 64.24151611 C40.14233398 67.02172852 40.14233398 67.02172852 41.14233398 73.02172852 C34.87233398 73.02172852 28.60233398 73.02172852 22.14233398 73.02172852 C20.82233398 69.06172852 19.50233398 65.10172852 18.14233398 61.02172852 C10.88233398 61.02172852 3.62233398 61.02172852 -3.85766602 61.02172852 C-6.33266602 66.96172852 -6.33266602 66.96172852 -8.85766602 73.02172852 C-15.12766602 73.02172852 -21.39766602 73.02172852 -27.85766602 73.02172852 C-25.90619634 66.38665787 -23.81676496 59.83306486 -21.52954102 53.30688477 C-21.2174469 52.41166611 -20.90535278 51.51644745 -20.58380127 50.59410095 C-19.92597977 48.70885058 -19.26709088 46.82397235 -18.60717773 44.93945312 C-17.62140247 42.12346833 -16.63965451 39.30610466 -15.65844727 36.48852539 C-12.47753063 27.37230113 -9.25282374 18.27298988 -5.93579102 9.20532227 C-5.6402533 8.39265396 -5.34471558 7.57998566 -5.04022217 6.74269104 C-2.56756753 0.030032 -2.56756753 0.030032 0 0 Z M6.14233398 26.02172852 C5.30571536 28.81244921 4.47290662 31.60420864 3.64233398 34.39672852 C3.40385742 35.19079102 3.16538086 35.98485352 2.91967773 36.80297852 C2.58129883 37.94379883 2.58129883 37.94379883 2.23608398 39.10766602 C2.02661133 39.80939941 1.81713867 40.51113281 1.60131836 41.23413086 C1.05943612 43.03699229 1.05943612 43.03699229 1.14233398 45.02172852 C5.10233398 45.02172852 9.06233398 45.02172852 13.14233398 45.02172852 C11.57723332 38.38868285 10.07868434 32.17408165 7.14233398 26.02172852 C6.81233398 26.02172852 6.48233398 26.02172852 6.14233398 26.02172852 Z " fill="#134101" transform="translate(645.857666015625,612.978271484375)"/>
<path d="M0 0 C12.83125726 1.67462617 28.16010587 20.11861445 36 30 C48.19993561 46.65653309 54.2250517 64.29191457 53 85 C52.484375 87.46484375 52.484375 87.46484375 52 89 C51.34 89 50.68 89 50 89 C49.63986816 88.22474976 49.63986816 88.22474976 49.27246094 87.43383789 C43.29411819 74.69963039 36.59692169 63.14285958 28 52 C27.31679688 51.11183594 26.63359375 50.22367188 25.9296875 49.30859375 C22.36454443 44.96807203 18.92036146 42.68436288 14 40 C13.67705811 56.63564749 13.64383389 72.628458 17 89 C17.39967329 91.22848139 17.79613165 93.4575451 18.1875 95.6875 C18.45588978 97.12545823 18.72555232 98.56318567 19 100 C13.36983757 99.01472157 10.49225276 96.02757834 6.95703125 91.81640625 C-8.7587933 69.19942122 -7.51632248 37.80356854 -3.19262695 11.90991211 C-2.45262816 7.79982148 -1.42132666 3.92556888 0 0 Z " fill="#FDFDFB" transform="translate(325,68)"/>
<path d="M0 0 C28.63737981 2.79287401 58.06203256 14.58078855 77 37 C81.90359625 43.90589805 85.41201111 50.34776676 85 59 C84.01 58.236875 83.02 57.47375 82 56.6875 C66.45412872 45.11020502 50.40976317 33.72104268 31 30 C33.7262188 45.24978641 41.52480448 57.02041779 51 69 C52.70033839 71.19871343 54.38315207 73.41023682 56.0625 75.625 C56.81660156 76.60726562 57.57070313 77.58953125 58.34765625 78.6015625 C60 81 60 81 60 83 C46.44485681 82.47864834 36.61115471 74.06631166 27.73046875 64.57421875 C13.30009222 47.91989627 -0.5326313 22.57025125 0 0 Z " fill="#F30A01" transform="translate(227,124)"/>
<path d="M0 0 C-0.60355408 3.85025879 -1.76772603 6.86101159 -3.5625 10.3125 C-4.01753906 11.19550781 -4.47257813 12.07851563 -4.94140625 12.98828125 C-5.46541016 13.98408203 -5.46541016 13.98408203 -6 15 C-8.66624523 14.51362027 -10.86423401 14.06604832 -13.3125 12.875 C-17.15802798 11.62296763 -20.0312506 12.32733061 -24 13 C-24.16185154 16.38810855 -24.16185154 16.38810855 -23 20 C-20.48444712 21.84355849 -17.69408638 22.71668143 -14.75 23.6875 C-2.12224154 28.12744543 -2.12224154 28.12744543 1.3125 34.375 C4.26261713 40.80505122 4.23230456 48.77589721 2.26953125 55.50390625 C-0.66722058 61.82091937 -5.33421424 66.30641649 -11.64453125 69.20703125 C-20.50559319 72.19010849 -29.35715087 71.21679076 -38 68 C-40.87251742 66.50611363 -43.35248889 64.88380598 -46 63 C-45.39644592 59.14974121 -44.23227397 56.13898841 -42.4375 52.6875 C-41.98246094 51.80449219 -41.52742187 50.92148437 -41.05859375 50.01171875 C-40.70925781 49.34785156 -40.35992188 48.68398438 -40 48 C-36 48 -36 48 -33.3125 49.9375 C-28.75897233 52.77271534 -24.02285129 53.64923782 -18.7265625 52.51171875 C-17.87191406 52.25841797 -17.87191406 52.25841797 -17 52 C-16.49874717 48.66857722 -16.49874717 48.66857722 -17 45 C-21.32855088 40.795122 -27.26519512 39.30094493 -32.87890625 37.34375 C-37.41719299 35.38984432 -40.25501559 33.23307764 -42.8125 29 C-45.27600513 22.40233684 -45.01148467 14.71736013 -42.5 8.1875 C-39.68504027 2.67779234 -35.18735112 -1.39555636 -29.6875 -4.1640625 C-19.33916031 -7.38287746 -9.3063437 -4.85246971 0 0 Z " fill="#134101" transform="translate(778,617)"/>
<path d="M0 0 C19.305 0.495 19.305 0.495 39 1 C39 6.28 39 11.56 39 17 C32.4 17 25.8 17 19 17 C18.67 20.63 18.34 24.26 18 28 C24.6 28 31.2 28 38 28 C37.67 33.61 37.34 39.22 37 45 C30.73 45 24.46 45 18 45 C18.33 45.66 18.66 46.32 19 47 C19 49.97 19 52.94 19 56 C25.6 56 32.2 56 39 56 C39 61.61 39 67.22 39 73 C26.13 73 13.26 73 0 73 C0 48.91 0 24.82 0 0 Z " fill="#134101" transform="translate(458,613)"/>
<path d="M0 0 C5.94 0 11.88 0 18 0 C18 18.15 18 36.3 18 55 C24.6 55 31.2 55 38 55 C38 60.61 38 66.22 38 72 C33.55250593 72.02303075 29.10522116 72.04292174 24.65771484 72.05493164 C23.14663998 72.05994162 21.63556991 72.06675144 20.12451172 72.07543945 C17.94497488 72.08765176 15.76550247 72.09326178 13.5859375 72.09765625 C11.62213135 72.10551147 11.62213135 72.10551147 9.61865234 72.11352539 C6 72 6 72 0 71 C0 47.57 0 24.14 0 0 Z " fill="#134101" transform="translate(692,614)"/>
<path d="M0 0 C4.84519135 2.42259567 7.32123742 5.33696883 10 10 C11.90128552 15.70385655 11.67991751 20.16622479 9.0625 25.5 C8.05667529 27.34161029 7.03315068 29.1735796 6 31 C5.25467255 32.38573181 4.51132773 33.77253107 3.76953125 35.16015625 C2.97269383 36.62833205 2.17451238 38.09577917 1.375 39.5625 C0.99093994 40.27792969 0.60687988 40.99335938 0.21118164 41.73046875 C-2.65534378 46.88511459 -2.65534378 46.88511459 -6 48 C-6.52980469 47.38253906 -7.05960938 46.76507813 -7.60546875 46.12890625 C-10.44352903 43.60567158 -12.66435242 42.92777273 -16.3125 41.9375 C-30.01866704 37.97759956 -30.01866704 37.97759956 -35 32 C-37.52403373 26.72166981 -37.69060761 21.75506343 -37 16 C-35.74703179 12.61934993 -34.34505759 9.67252879 -31 8 C-25.71089889 7.59746664 -20.78709845 7.44688083 -16 10 C-15.67386719 9.44570313 -15.34773437 8.89140625 -15.01171875 8.3203125 C-14.57472656 7.59585937 -14.13773438 6.87140625 -13.6875 6.125 C-13.25824219 5.40570313 -12.82898438 4.68640625 -12.38671875 3.9453125 C-9.17679436 -0.55762368 -5.10718134 -0.77528369 0 0 Z " fill="#134101" transform="translate(552,342)"/>
<path d="M0 0 C1.15755501 1.15755501 2.31371945 2.31651855 3.46484375 3.48046875 C4.45720368 4.46272832 5.46940256 5.42551038 6.50390625 6.36328125 C10.72909951 10.30340123 14.22853141 14.70476247 17.6875 19.3125 C18.1510791 19.91626465 18.6146582 20.5200293 19.09228516 21.14208984 C25.21145003 29.46758908 27.60883211 37.83826702 28.25 48.0625 C28.36057739 49.64599243 28.36057739 49.64599243 28.47338867 51.26147461 C29.00270991 59.80992038 29.22762171 68.36460009 29.29553223 76.927948 C29.30662898 78.32392369 29.32184067 79.71987429 29.3416748 81.11575317 C29.53383944 96.86919015 27.90303482 113.12605473 18 126 C17.34 126 16.68 126 16 126 C16.0721875 124.87851562 16.144375 123.75703125 16.21875 122.6015625 C16.86044678 111.69044166 17.15736768 100.77682923 17.23217773 89.84832764 C17.24388354 88.38802878 17.26080961 86.92776063 17.28344727 85.46759033 C17.50517118 70.29739696 14.43896394 56.57393963 9.72698975 42.2177124 C6.61080186 32.69683818 3.52907271 23.16710395 1.375 13.375 C1.14695679 12.34862427 1.14695679 12.34862427 0.91430664 11.30151367 C0.13093019 7.48738538 -0.13161481 3.88861945 0 0 Z " fill="#134001" transform="translate(319,390)"/>
<path d="M0 0 C-1.06367139 2.66410287 -2.13300351 5.32526178 -3.21875 7.98046875 C-3.6415625 9.03878906 -4.064375 10.09710938 -4.5 11.1875 C-4.9228125 12.23292969 -5.345625 13.27835938 -5.78125 14.35546875 C-8.60447834 22.79800735 -9.38595999 30.94175794 -9.375 39.8125 C-9.37628906 40.92544434 -9.37757813 42.03838867 -9.37890625 43.18505859 C-9.27168422 51.9541145 -8.29328577 60.45914008 -7 69.125 C-6.4848917 72.702781 -5.97111605 76.28074839 -5.45849609 79.85888672 C-5.17553272 81.79744194 -4.88133365 83.73444123 -4.56884766 85.66845703 C-3.8492626 90.37537845 -3.39490091 94.40919211 -5 99 C-8.65180061 103.05165127 -13.37101354 105.63555042 -18.18896484 108.07275391 C-19.78896536 108.89195072 -21.33233504 109.81975867 -22.86328125 110.76171875 C-25 112 -25 112 -27 112 C-26.81824219 110.26169922 -26.81824219 110.26169922 -26.6328125 108.48828125 C-25.48635402 96.97510786 -24.73845338 85.47740748 -24.18121338 73.92382812 C-21.42951954 17.74117223 -21.42951954 17.74117223 -7 3 C-2.5701559 0 -2.5701559 0 0 0 Z " fill="#134101" transform="translate(359,206)"/>
<path d="M0 0 C4.54007732 3.48358134 7.15037965 7.19008018 8.11328125 12.8671875 C8.35986719 17.84514125 8.03000524 22.25613647 4.92578125 26.3046875 C-0.20836817 30.98246808 -4.47489341 32.52858906 -11.35546875 32.26953125 C-15.69070461 31.58044283 -18.77561988 29.95678108 -21.88671875 26.8671875 C-25.17487998 21.89779129 -26.78765737 16.83590588 -25.88671875 10.8671875 C-22.46293297 4.40003659 -17.78076078 0.66524578 -10.9296875 -1.6484375 C-6.81535922 -2.62391877 -3.63101501 -2.18011253 0 0 Z " fill="#134101" transform="translate(386.88671875,266.1328125)"/>
<path d="M0 0 C1.65 0 3.3 0 5 0 C5.33 7.59 5.66 15.18 6 23 C16.395 21.515 16.395 21.515 27 20 C26.95875 18.164375 26.9175 16.32875 26.875 14.4375 C26.88081042 9.52188433 27.08385032 5.53824925 29 1 C29.99 0.67 30.98 0.34 32 0 C32.66 0.33 33.32 0.66 34 1 C34.14537369 16.36115333 33.7180376 31.65576567 33 47 C31.35 47 29.7 47 28 47 C26.34502644 43.69005287 26.89915665 40.00877 26.9375 36.375 C26.94201172 35.57320312 26.94652344 34.77140625 26.95117188 33.9453125 C26.96296832 31.96350994 26.98090395 29.98174567 27 28 C25.62328125 28.19916016 25.62328125 28.19916016 24.21875 28.40234375 C17.81827569 29.32342041 11.42043052 30.22954834 5 31 C5.01160156 31.56847656 5.02320313 32.13695312 5.03515625 32.72265625 C5.09187779 37.5763998 4.97543833 42.22035217 4 47 C3.34 47.66 2.68 48.32 2 49 C1.01 49 0.02 49 -1 49 C-2.57123005 45.85753989 -2.1452106 42.51106604 -2.125 39.0625 C-2.12234131 38.24797363 -2.11968262 37.43344727 -2.11694336 36.59423828 C-2.06048061 28.85097997 -1.82805661 21.11356557 -1.5625 13.375 C-1.52334473 12.17109619 -1.48418945 10.96719238 -1.44384766 9.72680664 C-1.40179199 8.60781982 -1.35973633 7.48883301 -1.31640625 6.3359375 C-1.27974854 5.33095215 -1.24309082 4.3259668 -1.20532227 3.29052734 C-1 1 -1 1 0 0 Z " fill="#134001" transform="translate(364,742)"/>
<path d="M0 0 C1.32 0 2.64 0 4 0 C4 7.92 4 15.84 4 24 C14.89 22.02 14.89 22.02 26 20 C26.28891837 14.49560879 26.28891837 14.49560879 26.56811523 8.99072266 C26.88888889 3.22222222 26.88888889 3.22222222 28 1 C29.65 1 31.3 1 33 1 C34.17906921 4.53720764 34.03519932 7.17734255 33.9140625 10.90625 C33.89282318 11.58619019 33.87158386 12.26613037 33.84970093 12.9666748 C33.80344973 14.40918427 33.75452225 15.85161004 33.703125 17.29394531 C33.62627371 19.4640337 33.55849804 21.63425437 33.4921875 23.8046875 C33.24155965 31.56278891 32.83197957 39.27889923 32 47 C30.02 47.495 30.02 47.495 28 48 C25.4323101 44.15857416 25.7739893 40.18195607 25.875 35.75 C25.91625 33.1925 25.9575 30.635 26 28 C18.74 28.99 11.48 29.98 4 31 C4 33.97 4 36.94 4 40 C3.75 43.9375 3.75 43.9375 3 47 C0.9375 48.4375 0.9375 48.4375 -1 49 C-3 47 -3 47 -3.23046875 44.32421875 C-3.21628906 43.12410156 -3.20210938 41.92398438 -3.1875 40.6875 C-3.17960449 40.01831543 -3.17170898 39.34913086 -3.16357422 38.65966797 C-3.12421821 36.10596159 -3.06227446 33.55325281 -3 31 C-2.97534668 29.82421387 -2.95069336 28.64842773 -2.92529297 27.43701172 C-2.83853552 23.49921523 -2.73441442 19.56222848 -2.625 15.625 C-2.5943042 14.32264404 -2.5636084 13.02028809 -2.53198242 11.6784668 C-2.49306885 10.45683838 -2.45415527 9.23520996 -2.4140625 7.9765625 C-2.3826416 6.87393066 -2.3512207 5.77129883 -2.31884766 4.63525391 C-2 2 -2 2 0 0 Z " fill="#124001" transform="translate(85,742)"/>
<path d="M0 0 C1.32 0 2.64 0 4 0 C4.06058594 0.98742187 4.12117187 1.97484375 4.18359375 2.9921875 C4.26738281 4.27351562 4.35117188 5.55484375 4.4375 6.875 C4.51871094 8.15117188 4.59992188 9.42734375 4.68359375 10.7421875 C4.79206027 13.88300152 4.79206027 13.88300152 6 16 C6.66 15.67 7.32 15.34 8 15 C12.23660902 14.56718336 15.91394711 14.55141294 19.875 16.1875 C23.31042076 19.11771182 25.36030843 22.522159 26 27 C26.46496159 34.0906642 25.3775376 38.86493603 20.96484375 44.68359375 C16.85786457 47.89234033 13.80249119 47.60757499 8.75 47.375 C7.92242187 47.36082031 7.09484375 47.34664062 6.2421875 47.33203125 C0.18303571 47.18303571 0.18303571 47.18303571 -1 46 C-1.09804851 44.5932478 -1.12798186 43.18164864 -1.12939453 41.77148438 C-1.13254669 40.87385376 -1.13569885 39.97622314 -1.13894653 39.0513916 C-1.1369223 38.07536987 -1.13489807 37.09934814 -1.1328125 36.09375 C-1.13376923 35.0987146 -1.13472595 34.1036792 -1.13571167 33.07849121 C-1.1363936 30.97013282 -1.13453844 28.86177235 -1.13037109 26.75341797 C-1.12502303 23.51394973 -1.13031567 20.27462015 -1.13671875 17.03515625 C-1.13605797 14.99218719 -1.13477681 12.94921822 -1.1328125 10.90625 C-1.13483673 9.93022827 -1.13686096 8.95420654 -1.13894653 7.9486084 C-1.13579437 7.05097778 -1.13264221 6.15334717 -1.12939453 5.22851562 C-1.12859894 4.43433228 -1.12780334 3.64014893 -1.12698364 2.82189941 C-1 1 -1 1 0 0 Z M6 24 C4.00850553 27.07411898 3.75301499 29.50182221 3.8125 33.125 C3.81894531 33.99382813 3.82539063 34.86265625 3.83203125 35.7578125 C3.8602493 38.0364545 3.8602493 38.0364545 5 40 C9.31238615 41.2652042 12.89891894 41.50466215 17 39.625 C19.82459063 35.9177248 20.27976921 32.60796352 20 28 C18.71470822 24.64396035 17.68065873 23.44150837 14.6875 21.5 C10.8847802 20.79251725 9.16597282 21.88935145 6 24 Z " fill="#134001" transform="translate(183,742)"/>
<path d="M0 0 C1.65 0 3.3 0 5 0 C6.1482685 2.296537 6.11561175 3.58313167 6.09765625 6.1328125 C6.09282227 7.34130859 6.09282227 7.34130859 6.08789062 8.57421875 C6.07951172 9.41597656 6.07113281 10.25773438 6.0625 11.125 C6.05798828 11.97449219 6.05347656 12.82398438 6.04882812 13.69921875 C6.03702874 15.79950909 6.01909306 17.8997633 6 20 C6.53254395 19.7105249 7.06508789 19.4210498 7.61376953 19.12280273 C8.6750708 18.56508179 8.6750708 18.56508179 9.7578125 17.99609375 C10.45535645 17.62411865 11.15290039 17.25214355 11.87158203 16.86889648 C15.1909176 15.51382476 17.6364485 15.99093455 21 17 C23.30668366 20.4600255 23.6655079 23.35562354 24.125 27.375 C24.20991699 28.07947266 24.29483398 28.78394531 24.38232422 29.50976562 C25.10943403 36.01132698 25.20151797 42.46186127 25 49 C23.35 49 21.7 49 20 49 C18.22034298 45.91526116 17.71563429 43.56067048 17.5859375 40.015625 C17.54726563 39.08105469 17.50859375 38.14648438 17.46875 37.18359375 C17.4378125 36.21550781 17.406875 35.24742187 17.375 34.25 C17.33632813 33.26644531 17.29765625 32.28289063 17.2578125 31.26953125 C17.16371574 28.84653963 17.07807672 26.42355204 17 24 C12.20799179 25.35669843 12.20799179 25.35669843 8.6875 28.8125 C6.36179215 33.32094186 6.46958238 38.12700883 6.37109375 43.109375 C6 46 6 46 4.47265625 47.890625 C3.98667969 48.25671875 3.50070312 48.6228125 3 49 C2.01 48.67 1.02 48.34 0 48 C-0.88351406 42.07420873 -1.07286924 36.44984748 -0.87890625 30.46875 C-0.85529526 29.59222778 -0.83168427 28.71570557 -0.80735779 27.81262207 C-0.73141968 25.04155385 -0.64709955 22.27081593 -0.5625 19.5 C-0.50920918 17.6093906 -0.4564694 15.71876559 -0.40429688 13.828125 C-0.27590041 9.21854498 -0.13999144 4.60924186 0 0 Z " fill="#134101" transform="translate(505,741)"/>
<path d="M0 0 C3.95963457 1.83840176 5.55718311 2.8437559 7.125 6.9375 C6.95958593 10.99014469 5.77656376 12.07263246 3 15 C0.67937066 16.62609665 -1.75398341 17.97571063 -4.25 19.3125 C-4.8996875 19.67150391 -5.549375 20.03050781 -6.21875 20.40039062 C-7.80729753 21.27642786 -9.40295142 22.13955805 -11 23 C-8.54065016 24.98964569 -7.31446819 25.95214614 -4.125 26.4375 C-0.26423517 25.89699292 1.80254137 24.15480908 5 22 C7.375 22.25 7.375 22.25 9 23 C9.3125 25.25 9.3125 25.25 9 28 C3.95854027 32.90520406 -0.50550164 33.3627906 -7.26953125 33.2734375 C-11.19262395 32.88056699 -13.18872177 31.74099627 -16 29 C-19.23155761 23.39863347 -19.98360231 18.11740501 -18.49609375 11.890625 C-16.94961448 7.18932801 -14.83655741 4.24631781 -11 1 C-7.52251558 -0.73874221 -3.80195426 -0.45291737 0 0 Z M-10 8 C-11.69066658 10.6205332 -12 11.82629722 -12 15 C-7.69235185 13.43358249 -3.93828536 11.31663844 0 9 C0 8.34 0 7.68 0 7 C-5.29930252 5.76862557 -5.29930252 5.76862557 -10 8 Z " fill="#123F01" transform="translate(673,757)"/>
<path d="M0 0 C4.54054054 2.08108108 4.54054054 2.08108108 6 5 C6.49789452 8.73420893 6.4255032 10.41309903 4.1875 13.5 C0.2125575 17.02689984 -6.59751638 22 -12 22 C-11.34 22.99 -10.68 23.98 -10 25 C-5.32822823 25.91903707 -1.63851904 26.30458348 3 25 C3 24.34 3 23.68 3 23 C4.65 22.67 6.3 22.34 8 22 C8.8125 24.1875 8.8125 24.1875 9 27 C6.47494414 30.08617938 4.80132605 31.73289132 1 33 C-4.3232961 33.50976619 -8.65894804 33.67052598 -13.5 31.25 C-18.78197961 26.49621835 -18.78197961 26.49621835 -19.3984375 22.265625 C-19.34825034 15.8082098 -18.99204774 10.77774735 -16 5 C-10.85919701 0.10996788 -6.9104343 -0.69223694 0 0 Z M-9.8125 8.1875 C-11.73958327 10.66517849 -12.66093677 11.94843089 -13 15 C-8.39571066 13.68448876 -4.81679612 11.90803514 -1 9 C-1 8.34 -1 7.68 -1 7 C-5.09624466 5.76160045 -6.34036256 5.48694865 -9.8125 8.1875 Z " fill="#123F01" transform="translate(142,757)"/>
<path d="M0 0 C5.625 2.25 5.625 2.25 7 5 C7.49789452 8.73420893 7.4255032 10.41309903 5.1875 13.5 C1.2125575 17.02689984 -5.59751638 22 -11 22 C-9.37960174 25.09518662 -9.37960174 25.09518662 -7.046875 25.65234375 C-2.6050825 26.20379078 -0.63826313 26.36641031 3.375 24.0625 C4.674375 23.0415625 4.674375 23.0415625 6 22 C6.99 22 7.98 22 9 22 C9.33 23.98 9.66 25.96 10 28 C3.42976366 32.52616281 -1.11810902 33.68208672 -9 33 C-13.60987286 31.19613671 -15.8642148 28.42977671 -18 24 C-18.94902275 17.10376798 -18.1464359 11.18437401 -15 5 C-10.24666541 0.47853539 -6.51664816 -0.70123487 0 0 Z M-11 11 C-11.86119134 13.17346568 -11.86119134 13.17346568 -12 15 C-8.70319035 14.34215037 -6.15882078 13.10579427 -3.25 11.4375 C-2.45078125 10.98246094 -1.6515625 10.52742187 -0.828125 10.05859375 C-0.22484375 9.70925781 0.3784375 9.35992188 1 9 C-0.63137811 5.79889882 -0.63137811 5.79889882 -3.3125 5.5 C-7.14424333 6.21288248 -8.57197125 8.03240931 -11 11 Z " fill="#123F01" transform="translate(318,757)"/>
<path d="M0 0 C2.95840402 1.33394971 3.86337712 2.35733486 6 5 C6.25 8.5 6.25 8.5 5 12 C0.32592749 17.04307823 -5.94920657 19.86693792 -12 23 C-12 23.66 -12 24.32 -12 25 C-4.71776469 26.34801941 -1.18419987 26.03866114 5 22 C5.99 22.33 6.98 22.66 8 23 C8.33 23.99 8.66 24.98 9 26 C7.1126813 29.09520267 5.58171618 30.71590605 2.3125 32.3125 C-2.94446551 33.40356831 -7.78575878 33.93490185 -12.8125 31.8125 C-16.75716769 28.54406105 -18.70753102 26.27432914 -19.875 21.1875 C-20.41576581 14.18392328 -18.43947194 8.45420838 -14 3 C-9.82706857 -0.57679836 -5.27425369 -0.96987152 0 0 Z M-9.8125 7.625 C-12.17638186 10.1915003 -12.71454928 11.57459134 -13 15 C-8.39571066 13.68448876 -4.81679612 11.90803514 -1 9 C-1 8.34 -1 7.68 -1 7 C-4.7753941 5.94640165 -6.3492014 5.62398303 -9.8125 7.625 Z " fill="#134001" transform="translate(422,757)"/>
<path d="M0 0 C1.625 1.125 1.625 1.125 2.625 3.125 C2.65102687 6.82453302 2.59749949 10.51115538 2.49804688 14.20898438 C2.42736876 19.24376092 3.10026081 23.27573144 4.625 28.125 C4.625 29.445 4.625 30.765 4.625 32.125 C2.11276344 32.19478435 -0.06088986 32.2081468 -2.5 31.5625 C-4.58383241 30.90376382 -4.58383241 30.90376382 -7.375 32.125 C-14.40861345 32.69222689 -14.40861345 32.69222689 -18.25 30.4375 C-22.73763462 25.55389762 -22.81275892 20.44286018 -22.6875 14.0703125 C-22.22029013 9.66685947 -21.13142406 7.60679881 -18.375 4.125 C-12.74937204 -0.23773189 -7.04706374 -2.59628664 0 0 Z M-8.375 5.125 C-12.00976211 7.52394299 -13.8687495 9.112499 -15.8125 13 C-16.60633256 17.41018086 -16.51663586 21.20224486 -14.1875 25.125 C-11.39849729 26.66376012 -9.37115831 25.88997659 -6.375 25.125 C-5.715 24.795 -5.055 24.465 -4.375 24.125 C-4.375 18.185 -4.375 12.245 -4.375 6.125 C-5.695 5.795 -7.015 5.465 -8.375 5.125 Z " fill="#124001" transform="translate(454.375,757.875)"/>
<path d="M0 0 C2.49213378 0.28598256 3.67015692 0.62413231 5.34375 2.53125 C8.28517619 7.53962432 10.77627782 12.63325151 13 18 C13.31453125 17.3709375 13.6290625 16.741875 13.953125 16.09375 C17.9765625 8.046875 17.9765625 8.046875 22 0 C24.475 0.495 24.475 0.495 27 1 C25.79033472 10.34240324 22.10497202 18.70278404 18.5 27.3125 C17.89890466 28.76593102 17.2986382 30.21970514 16.69921875 31.67382812 C15.60082311 34.33590459 14.49749281 36.9958147 13.38867188 39.65356445 C12.53384694 41.71353024 11.72055915 43.7920385 10.97851562 45.89526367 C10.49415039 46.93710815 10.49415039 46.93710815 10 48 C7.375 48.8125 7.375 48.8125 5 49 C4.64159919 42.40277021 5.23944761 38.09621986 8 32 C8.77794254 25.48473121 6.56193855 21.44990889 3.5 15.9375 C-1.74731211 6.44348935 -1.74731211 6.44348935 -1 1 C-0.67 0.67 -0.34 0.34 0 0 Z " fill="#124001" transform="translate(534,757)"/>
<path d="M0 0 C2.61652946 2.29937438 2.6150176 3.3927924 3.0625 6.8125 C3.1063022 9.20793289 3.1022182 11.60449591 3.0625 14 C3.01533057 20.01410207 3.27709232 25.85181675 4.0625 31.8125 C2.20625 31.5340625 2.20625 31.5340625 0.3125 31.25 C-2.79490694 30.85817286 -4.92288216 30.93728837 -7.9375 31.8125 C-12.89782638 32.17325101 -16.03467863 32.04626628 -19.9375 28.8125 C-23.14900768 22.51343757 -23.17510864 14.2293548 -21.28515625 7.484375 C-17.08542697 -0.80693602 -8.36519546 -3.38167476 0 0 Z M-7.9375 4.8125 C-9.90416344 5.91928557 -9.90416344 5.91928557 -11.625 7.625 C-12.22699219 8.16769531 -12.82898438 8.71039062 -13.44921875 9.26953125 C-15.95493089 11.8673168 -16.09623042 13.74586498 -16.125 17.25 C-16.13917969 18.03246094 -16.15335938 18.81492187 -16.16796875 19.62109375 C-16.07836064 22.10455987 -16.07836064 22.10455987 -13.9375 24.8125 C-9.56265709 26.34960697 -8.57640361 25.66806144 -3.9375 23.8125 C-3.9375 17.8725 -3.9375 11.9325 -3.9375 5.8125 C-5.2575 5.4825 -6.5775 5.1525 -7.9375 4.8125 Z " fill="#134001" transform="translate(233.9375,758.1875)"/>
<path d="M0 0 C-0.0625 2.3125 -0.0625 2.3125 -1 5 C-2.11375 5.433125 -3.2275 5.86625 -4.375 6.3125 C-8.00938872 7.58160098 -8.00938872 7.58160098 -9.12890625 9.9609375 C-9.84826793 11.94178851 -10.43424364 13.96993308 -11 16 C-7.7 16 -4.4 16 -1 16 C-0.67 17.65 -0.34 19.3 0 21 C-3.85786966 22.81546807 -6.76705996 23.09380477 -11 23 C-10.98952637 23.74161377 -10.97905273 24.48322754 -10.96826172 25.24731445 C-10.92672804 28.60234193 -10.90068211 31.95731533 -10.875 35.3125 C-10.85824219 36.47974609 -10.84148438 37.64699219 -10.82421875 38.84960938 C-10.81777344 39.96787109 -10.81132813 41.08613281 -10.8046875 42.23828125 C-10.79421387 43.26993408 -10.78374023 44.30158691 -10.77294922 45.36450195 C-11 48 -11 48 -13 51 C-14.32 51 -15.64 51 -17 51 C-18.13650717 44.93020983 -17.92803609 39.20938855 -17.5625 33.0625 C-17.51029297 32.09248047 -17.45808594 31.12246094 -17.40429688 30.12304688 C-17.27561558 27.74829212 -17.14070204 25.37406771 -17 23 C-19.31 23 -21.62 23 -24 23 C-24 21.35 -24 19.7 -24 18 C-22.6078125 17.87625 -22.6078125 17.87625 -21.1875 17.75 C-17.78363728 16.35455701 -17.78363728 16.35455701 -17.14453125 13.37109375 C-16.93183594 12.32050781 -16.71914063 11.26992188 -16.5 10.1875 C-15.12301127 3.39218281 -15.12301127 3.39218281 -12.0625 0.8125 C-7.09867622 -2.12527326 -5.2928821 -2.49941655 0 0 Z " fill="#134001" transform="translate(650,742)"/>
<path d="M0 0 C1.21236328 0.02707031 1.21236328 0.02707031 2.44921875 0.0546875 C3.37154297 0.08949219 3.37154297 0.08949219 4.3125 0.125 C4.6425 1.775 4.9725 3.425 5.3125 5.125 C4.68601562 5.23714844 4.05953125 5.34929688 3.4140625 5.46484375 C0.76647093 6.10377358 -1.33802633 6.73335563 -3.6875 8.125 C-5.15298981 11.2206414 -5.33534096 13.65371802 -5.6875 17.125 C-2.7175 17.125 0.2525 17.125 3.3125 17.125 C3.6425 18.775 3.9725 20.425 4.3125 22.125 C0.88852277 24.23206291 -1.72692467 24.21180713 -5.6875 24.125 C-5.67702637 24.76002441 -5.66655273 25.39504883 -5.65576172 26.04931641 C-5.61397533 28.9495034 -5.58810229 31.84962682 -5.5625 34.75 C-5.53736328 36.24853516 -5.53736328 36.24853516 -5.51171875 37.77734375 C-5.47735754 42.96588709 -5.58495063 47.27423649 -7.6875 52.125 C-9.3375 51.795 -10.9875 51.465 -12.6875 51.125 C-12.3575 42.215 -12.0275 33.305 -11.6875 24.125 C-13.9975 24.125 -16.3075 24.125 -18.6875 24.125 C-18.6875 22.475 -18.6875 20.825 -18.6875 19.125 C-16.3775 18.465 -14.0675 17.805 -11.6875 17.125 C-11.65011719 16.54492188 -11.61273438 15.96484375 -11.57421875 15.3671875 C-11.15120185 10.34075144 -10.44789585 6.47793191 -7.6875 2.125 C-4.48369983 -0.01086678 -3.66810033 -0.10632175 0 0 Z " fill="#134001" transform="translate(290.6875,740.875)"/>
<path d="M0 0 C0.0251057 3.91030885 0.04304746 7.82058515 0.05493164 11.73095703 C0.06231093 13.6995611 0.07503058 15.66814286 0.08789062 17.63671875 C0.10779903 25.4806314 -0.19104406 33.19681283 -1 41 C0.64548828 40.65775391 0.64548828 40.65775391 2.32421875 40.30859375 C3.77854576 40.01772835 5.23297856 39.72739157 6.6875 39.4375 C7.7693457 39.21030273 7.7693457 39.21030273 8.87304688 38.97851562 C12.88884763 38.19002507 15.98291885 37.80359122 20 39 C19.67 40.98 19.34 42.96 19 45 C11.38319024 47.56437683 3.01765825 49.7310853 -5 48 C-8.26036994 43.93218654 -8.31151981 40.74423795 -8.109375 35.64453125 C-8.08530579 34.94285324 -8.06123657 34.24117523 -8.03643799 33.51823425 C-7.95572394 31.2821418 -7.85283868 29.04767211 -7.75 26.8125 C-7.69523537 25.33012844 -7.64183734 23.84770572 -7.58984375 22.36523438 C-7.31064877 14.8798668 -6.85421075 7.44488851 -6 0 C-2.25 -1.125 -2.25 -1.125 0 0 Z " fill="#124001" transform="translate(588,743)"/>
<path d="M0 0 C2.10911071 0.00311361 4.21675087 -0.020153 6.32568359 -0.0456543 C18.68678459 -0.10602487 31.11169394 1.02628985 42.14990234 7.06567383 C43.14521973 7.58846924 43.14521973 7.58846924 44.16064453 8.12182617 C51.70494516 12.18910805 58.64696297 16.59822195 62.77490234 24.31567383 C62.77490234 24.97567383 62.77490234 25.63567383 62.77490234 26.31567383 C59.68316483 27.86154259 57.18060682 27.60926904 53.77490234 27.31567383 C51.33740234 25.31567383 51.33740234 25.31567383 49.77490234 23.31567383 C51.75490234 22.98567383 53.73490234 22.65567383 55.77490234 22.31567383 C43.80134405 10.15291709 29.50899387 4.36990017 12.44775391 4.06591797 C9.37164602 4.065582 6.30136902 4.14055761 3.22705078 4.24194336 C0.69319857 4.31813047 -1.83872095 4.34715981 -4.37353516 4.37426758 C-15.30710248 4.5898619 -25.1274093 6.13917188 -35.61181641 9.25708008 C-39.22509766 10.31567383 -39.22509766 10.31567383 -41.22509766 10.31567383 C-36.72349098 19.23991162 -30.40667686 25.55243904 -23.22509766 32.31567383 C-26.22509766 32.31567383 -26.22509766 32.31567383 -28.74853516 30.05004883 C-29.70669457 29.06261232 -30.65694548 28.06745438 -31.60009766 27.06567383 C-34.27536877 24.26545873 -36.91495309 21.56272308 -39.95166016 19.14379883 C-42.22509766 17.31567383 -42.22509766 17.31567383 -44.22509766 14.31567383 C-44.35009766 11.12817383 -44.35009766 11.12817383 -44.22509766 8.31567383 C-35.37780388 4.96541185 -27.76534656 2.31567383 -18.22509766 2.31567383 C-17.47534668 1.99187744 -16.7255957 1.66808105 -15.953125 1.33447266 C-10.88118858 -0.55967364 -5.35805841 -0.0164807 0 0 Z " fill="#C4D06D" transform="translate(217.22509765625,214.684326171875)"/>
<path d="M0 0 C2.5 0.3125 2.5 0.3125 5 1 C6.35439668 3.70879335 6.06501451 6.00933268 6 9 C6.928125 8.95875 7.85625 8.9175 8.8125 8.875 C12 9 12 9 15 11 C14.67 12.65 14.34 14.3 14 16 C11.36 16 8.72 16 6 16 C6.10828125 17.12535156 6.10828125 17.12535156 6.21875 18.2734375 C7.95801938 37.45371367 7.95801938 37.45371367 5 43 C3.35 42.67 1.7 42.34 0 42 C0 33.75 0 25.5 0 17 C-2.64 16.67 -5.28 16.34 -8 16 C-8.6875 14.1875 -8.6875 14.1875 -9 12 C-7.875 10.1875 -7.875 10.1875 -6 9 C-3.3125 9.3125 -3.3125 9.3125 -1 10 C-1.01160156 9.36191406 -1.02320313 8.72382812 -1.03515625 8.06640625 C-1.04417969 7.24011719 -1.05320312 6.41382813 -1.0625 5.5625 C-1.07410156 4.73878906 -1.08570313 3.91507813 -1.09765625 3.06640625 C-1 1 -1 1 0 0 Z " fill="#134001" transform="translate(485,747)"/>
<path d="M0 0 C0.90000732 -0.00515625 1.80001465 -0.0103125 2.72729492 -0.015625 C7.20184501 0.03155979 10.81572332 0.1986443 14.875 2.3125 C14.875 2.6425 14.875 2.9725 14.875 3.3125 C13.83327637 3.342229 13.83327637 3.342229 12.77050781 3.37255859 C9.55502475 3.46914048 6.34007723 3.57826748 3.125 3.6875 C1.48724609 3.73390625 1.48724609 3.73390625 -0.18359375 3.78125 C-7.63824174 4.04591206 -14.80065128 4.90295211 -22.125 6.3125 C-15.52343642 15.78430861 -5.04717811 20.76889907 4.9375 25.9375 C12.40311279 29.83396169 19.8123038 33.70984405 26.875 38.3125 C25.11572266 42.20458984 25.11572266 42.20458984 22.94921875 43.17578125 C14.22063611 44.8186405 5.09814063 45.02127322 -3.125 41.3125 C-3.125 40.6525 -3.125 39.9925 -3.125 39.3125 C-2.13318726 39.32035522 -2.13318726 39.32035522 -1.12133789 39.32836914 C1.85659851 39.34907656 4.83451982 39.36214012 7.8125 39.375 C8.85341797 39.38337891 9.89433594 39.39175781 10.96679688 39.40039062 C12.45083008 39.40522461 12.45083008 39.40522461 13.96484375 39.41015625 C14.88128662 39.41539307 15.79772949 39.42062988 16.74194336 39.42602539 C18.85863023 39.55171211 18.85863023 39.55171211 19.875 38.3125 C19.05410889 37.86970703 18.23321777 37.42691406 17.38745117 36.97070312 C14.28453445 35.29205815 11.18566883 33.60634347 8.08911133 31.91601562 C6.75923988 31.19188372 5.42790246 30.47043626 4.0949707 29.75195312 C-19.03528316 17.27642637 -19.03528316 17.27642637 -26.125 7.3125 C-26.125 5.9925 -26.125 4.6725 -26.125 3.3125 C-17.35763441 1.04995404 -9.05487114 0.01261673 0 0 Z " fill="#5B939F" transform="translate(240.125,232.6875)"/>
<path d="M0 0 C3 1 3 1 5 3 C5.680625 2.505 6.36125 2.01 7.0625 1.5 C10.69141808 -0.35306455 12.97490253 -0.52177189 17 0 C18.9375 1.5 18.9375 1.5 20 4 C20.22844671 6.72059269 20.13704173 9.2591654 20 12 C18.35 12.66 16.7 13.32 15 14 C14 13 14 13 13.9375 9.9375 C13.958125 8.968125 13.97875 7.99875 14 7 C8.68588506 8.92391649 8.68588506 8.92391649 5 13 C4.66759455 15.09162027 4.66759455 15.09162027 4.65625 17.37890625 C4.62660156 18.21744141 4.59695312 19.05597656 4.56640625 19.91992188 C4.52203732 21.68554441 4.47776692 23.45116943 4.43359375 25.21679688 C4.40394531 26.05404297 4.37429687 26.89128906 4.34375 27.75390625 C4.32505859 28.52033447 4.30636719 29.2867627 4.28710938 30.07641602 C4 32 4 32 2 34 C-0.125 33.625 -0.125 33.625 -2 33 C-2.25527569 28.43856763 -2.4746667 23.8760941 -2.6875 19.3125 C-2.76033203 18.01892578 -2.83316406 16.72535156 -2.90820312 15.39257812 C-2.96298828 14.14541016 -3.01777344 12.89824219 -3.07421875 11.61328125 C-3.13182373 10.46641846 -3.18942871 9.31955566 -3.2487793 8.13793945 C-2.97094562 4.63352701 -2.02706487 2.82862423 0 0 Z " fill="#134001" transform="translate(157,757)"/>
<path d="M0 0 C1.67542976 0.28604898 3.34385343 0.61781233 5 1 C5.02484561 6.55012695 5.04292868 12.10022102 5.05493164 17.65039062 C5.05993919 19.53581303 5.06674715 21.4212316 5.07543945 23.30664062 C5.08766253 26.02735344 5.09326424 28.7480146 5.09765625 31.46875 C5.10281754 32.30241089 5.10797882 33.13607178 5.11329651 33.99499512 C5.11377714 39.08707816 4.73129553 43.95937477 4 49 C1.525 49.495 1.525 49.495 -1 50 C-2.63148561 46.73702877 -2.14168731 43.13953602 -2.1328125 39.5546875 C-2.13376923 38.71084503 -2.13472595 37.86700256 -2.13571167 36.99758911 C-2.13639315 35.20705084 -2.13454109 33.41651011 -2.13037109 31.62597656 C-2.12506217 28.90684316 -2.13029639 26.18787797 -2.13671875 23.46875 C-2.13605718 21.72656214 -2.1347744 19.98437438 -2.1328125 18.2421875 C-2.13483673 17.4366745 -2.13686096 16.6311615 -2.13894653 15.80123901 C-2.08306037 2.08306037 -2.08306037 2.08306037 0 0 Z " fill="#123F01" transform="translate(466,740)"/>
<path d="M0 0 C4.875 0.875 4.875 0.875 6 2 C6.07396929 3.3970825 6.07823092 4.79795723 6.0534668 6.19677734 C6.0398259 7.08795258 6.026185 7.97912781 6.01213074 8.89730835 C5.99136978 9.86705597 5.97060883 10.83680359 5.94921875 11.8359375 C5.9303511 12.82622955 5.91148346 13.81652161 5.89204407 14.83682251 C5.85007589 16.9368435 5.80533022 19.03681049 5.75805664 21.13671875 C5.68795632 24.35405647 5.63357416 27.57141134 5.58007812 30.7890625 C5.53742322 32.82554127 5.49383421 34.86200074 5.44921875 36.8984375 C5.43453049 37.86413666 5.41984222 38.82983582 5.40470886 39.82479858 C5.37006279 41.17101791 5.37006279 41.17101791 5.3347168 42.54443359 C5.31837692 43.33417572 5.30203705 44.12391785 5.28520203 44.93759155 C5 47 5 47 3 50 C1.68 49.67 0.36 49.34 -1 49 C-1.92012786 43.63525451 -2.07997923 38.57737764 -1.9140625 33.14453125 C-1.89282318 32.32047287 -1.87158386 31.49641449 -1.84970093 30.64738464 C-1.80370296 28.9169443 -1.75479926 27.18657897 -1.703125 25.45629883 C-1.62493233 22.81021002 -1.55790064 20.16400317 -1.4921875 17.51757812 C-1.44597415 15.83071091 -1.39912137 14.14386107 -1.3515625 12.45703125 C-1.33171295 11.66843216 -1.3118634 10.87983307 -1.29141235 10.06733704 C-1.18146967 6.5664437 -0.93149528 3.37314024 0 0 Z " fill="#124001" transform="translate(245,740)"/>
<path d="M0 0 C1.32 0.33 2.64 0.66 4 1 C4 13.54 4 26.08 4 39 C2.35 39 0.7 39 -1 39 C-3.01974733 36.98025267 -2.16399439 32.86915483 -2.16796875 30.09765625 C-2.17129715 29.30475693 -2.17462555 28.5118576 -2.17805481 27.69493103 C-2.18312726 26.01448142 -2.18546304 24.33402171 -2.18530273 22.65356445 C-2.18748786 20.07681741 -2.20563609 17.50049924 -2.22460938 14.92382812 C-2.22754345 13.2942723 -2.22952815 11.66471444 -2.23046875 10.03515625 C-2.23765427 9.26115982 -2.24483978 8.48716339 -2.25224304 7.68971252 C-2.22882253 2.22882253 -2.22882253 2.22882253 0 0 Z " fill="#134101" transform="translate(334,740)"/>
<path d="M0 0 C1.65 0 3.3 0 5 0 C6.20245242 3.77214221 6.12941419 7.38264468 6.1328125 11.3203125 C6.13376923 12.0201828 6.13472595 12.7200531 6.13571167 13.44113159 C6.13639028 14.91534516 6.13455827 16.38956176 6.13037109 17.86376953 C6.12500216 20.12409119 6.13033506 22.38421561 6.13671875 24.64453125 C6.13605823 26.07812544 6.1347776 27.51171951 6.1328125 28.9453125 C6.13168457 30.25000488 6.13055664 31.55469727 6.12939453 32.89892578 C6 36 6 36 5 38 C3.35 37.67 1.7 37.34 0 37 C-1.16338 29.08039835 -0.91770051 21.41930453 -0.5625 13.4375 C-0.51029297 12.14263672 -0.45808594 10.84777344 -0.40429688 9.51367188 C-0.2755634 6.34214724 -0.14064343 3.17101504 0 0 Z " fill="#123F01" transform="translate(700,741)"/>
<path d="M0 0 C1.65 0 3.3 0 5 0 C5 12.21 5 24.42 5 37 C2.525 37.495 2.525 37.495 0 38 C-1.18138498 34.45584506 -1.1434738 31.24578422 -1.1328125 27.55859375 C-1.13376923 26.83511246 -1.13472595 26.11163116 -1.13571167 25.3662262 C-1.13639142 23.83895785 -1.13455141 22.3116866 -1.13037109 20.78442383 C-1.12501214 18.44280542 -1.13032695 16.10137813 -1.13671875 13.75976562 C-1.13605808 12.27604124 -1.13477716 10.79231698 -1.1328125 9.30859375 C-1.13584885 8.25544228 -1.13584885 8.25544228 -1.13894653 7.18101501 C-1.11496776 2.22993553 -1.11496776 2.22993553 0 0 Z " fill="#134101" transform="translate(687,741)"/>
<path d="M0 0 C0.99 0.33 1.98 0.66 3 1 C4.11984119 4.35952356 4.028066 6.66910457 3.87890625 10.19921875 C3.83056641 11.40771484 3.78222656 12.61621094 3.73242188 13.86132812 C3.67634766 15.12396484 3.62027344 16.38660156 3.5625 17.6875 C3.51029297 18.96173828 3.45808594 20.23597656 3.40429688 21.54882812 C3.27449555 24.69946039 3.1395244 27.84978577 3 31 C1.33388095 31.042721 -0.33382885 31.04063832 -2 31 C-4.70612706 28.29387294 -3.23515568 20.26928073 -3.25 16.625 C-3.270625 15.366875 -3.29125 14.10875 -3.3125 12.8125 C-3.31765625 11.60851562 -3.3228125 10.40453125 -3.328125 9.1640625 C-3.3374707 8.05498535 -3.34681641 6.9459082 -3.35644531 5.80322266 C-3 3 -3 3 -1.47949219 1.11474609 C-0.99125977 0.74687988 -0.50302734 0.37901367 0 0 Z " fill="#134001" transform="translate(262,757)"/>
<path d="M0 0 C2.0625 0.4375 2.0625 0.4375 4 1 C4.19616609 5.4579968 4.38047068 9.91640535 4.5625 14.375 C4.61857422 15.64601563 4.67464844 16.91703125 4.73242188 18.2265625 C4.78076172 19.43828125 4.82910156 20.65 4.87890625 21.8984375 C4.94960327 23.57945557 4.94960327 23.57945557 5.02172852 25.29443359 C5 28 5 28 4 30 C2.35 30 0.7 30 -1 30 C-2.64746973 26.70506055 -2.14562737 23.05597491 -2.125 19.4375 C-2.12234131 18.6235376 -2.11968262 17.8095752 -2.11694336 16.97094727 C-1.99857879 1.99857879 -1.99857879 1.99857879 0 0 Z " fill="#134101" transform="translate(615,758)"/>
<path d="M0 0 C-2.24498269 6.21687514 -6.38847483 10.76448434 -10.4765625 15.87890625 C-12.16981918 18.01516129 -12.16981918 18.01516129 -13 21 C-13.99 21 -14.98 21 -16 21 C-16 20.01 -16 19.02 -16 18 C-15.34 18 -14.68 18 -14 18 C-13.7525 17.0925 -13.505 16.185 -13.25 15.25 C-11.96018658 11.89648511 -10.68028958 10.32291764 -8 8 C-8.33 7.67 -8.66 7.34 -9 7 C-9.78375 7.66 -10.5675 8.32 -11.375 9 C-14 11 -14 11 -16 11 C-16 11.66 -16 12.32 -16 13 C-17.5 14.625 -17.5 14.625 -19 16 C-19.99 15.67 -20.98 15.34 -22 15 C-22 13 -22 13 -20.8125 11.5625 C-19 10 -19 10 -16.625 8.625 C-13.85028939 7.04592716 -13.85028939 7.04592716 -11.4375 4.4375 C-7.67931548 0.67931548 -5.30188269 -0.29454904 0 0 Z " fill="#5E8401" transform="translate(611,214)"/>
<path d="M0 0 C3.1318764 1.41529985 5.46326509 3.13899756 8.0625 5.375 C13.92640394 10.17756386 20.29931685 14.08722911 26.75024414 18.05029297 C27.5571167 18.54803223 28.36398926 19.04577148 29.1953125 19.55859375 C30.29383545 20.22846313 30.29383545 20.22846313 31.41455078 20.91186523 C31.93774902 21.27094971 32.46094727 21.63003418 33 22 C33 22.33 33 22.66 33 23 C27.56431988 23.85826528 24.22778874 21.86756666 19.79296875 19.04296875 C12.34093004 13.59203694 5.79461925 7.17730618 0 0 Z " fill="#C3D06F" transform="translate(194,248)"/>
<path d="M0 0 C1.66611905 -0.042721 3.33382885 -0.04063832 5 0 C6 1 6 1 6.0625 4.0625 C6.041875 5.031875 6.02125 6.00125 6 7 C4.35 7.33 2.7 7.66 1 8 C-0.42944945 5.64561267 -1.08661261 4.51967567 -0.625 1.75 C-0.41875 1.1725 -0.2125 0.595 0 0 Z " fill="#113F01" transform="translate(686,783)"/>
<path d="M0 0 C3.53571429 0.53571429 3.53571429 0.53571429 5 2 C5.04063832 3.66617115 5.042721 5.33388095 5 7 C0.25 8.125 0.25 8.125 -2 7 C-2.125 4.625 -2.125 4.625 -2 2 C-1.34 1.34 -0.68 0.68 0 0 Z " fill="#123F01" transform="translate(616,743)"/>
<path d="M0 0 C1.32 0.66 2.64 1.32 4 2 C3.67 3.65 3.34 5.3 3 7 C1.34385343 7.38218767 -0.32457024 7.71395102 -2 8 C-3 7 -3 7 -3.25 4.5625 C-3.1675 3.716875 -3.085 2.87125 -3 2 C-2.01 1.34 -1.02 0.68 0 0 Z " fill="#124001" transform="translate(263,743)"/>
<path d="M0 0 C1.67542976 0.28604898 3.34385343 0.61781233 5 1 C5 2.98 5 4.96 5 7 C3.35 7 1.7 7 0 7 C-0.38133299 5.0085944 -0.71325582 3.00720923 -1 1 C-0.67 0.67 -0.34 0.34 0 0 Z " fill="#124001" transform="translate(700,783)"/>
<path d="M0 0 C2.0625 0.4375 2.0625 0.4375 4 1 C4.33 2.32 4.66 3.64 5 5 C3.35 5.33 1.7 5.66 0 6 C-0.38218767 4.34385343 -0.71395102 2.67542976 -1 1 C-0.67 0.67 -0.34 0.34 0 0 Z " fill="#124101" transform="translate(333,784)"/>
</svg>
